<svg width="25" height="25" viewBox="0 0 25 25" fill="none" xmlns="http://www.w3.org/2000/svg">
<g clip-path="url(#clip0)">
<path d="M21.8524 23.3871H20.2621V3.62903C20.2621 3.18362 19.901 2.82258 19.4556 2.82258H13.4072V0.806452C13.4072 0.361038 13.0462 0 12.6008 0H7.00604C6.56062 0 6.19958 0.361038 6.19958 0.806452V2.82258H5.54434C5.09893 2.82258 4.73789 3.18362 4.73789 3.62903V23.3871H3.14762C2.71324 23.3871 2.33965 23.7211 2.31944 24.1549C2.29787 24.6181 2.66662 25 3.12499 25H8.87095C9.09364 25 9.27418 24.8195 9.27418 24.5968V19.9597H8.94414C8.50992 19.9597 8.13628 19.626 8.11581 19.1922C8.09399 18.7291 8.46304 18.3468 8.92136 18.3468C9.16486 18.3468 16.2573 18.3468 16.0558 18.3468C16.4901 18.3468 16.8637 18.6805 16.8842 19.1142C16.906 19.5773 16.537 19.9597 16.0786 19.9597H15.7258V24.5968C15.7258 24.8195 15.9063 25 16.129 25H21.875C22.3334 25 22.7021 24.6181 22.6805 24.1549C22.6603 23.7211 22.2867 23.3871 21.8524 23.3871ZM10.5343 16.6835H9.627C9.18164 16.6835 8.82055 16.3224 8.82055 15.877C8.82055 15.4317 9.18164 15.0706 9.627 15.0706H10.5343C10.9796 15.0706 11.3407 15.4317 11.3407 15.877C11.3407 16.3224 10.9796 16.6835 10.5343 16.6835ZM10.5343 13.6593H9.627C9.18164 13.6593 8.82055 13.2982 8.82055 12.8528C8.82055 12.4075 9.18164 12.0464 9.627 12.0464H10.5343C10.9796 12.0464 11.3407 12.4075 11.3407 12.8528C11.3407 13.2982 10.9796 13.6593 10.5343 13.6593ZM10.5343 10.6351H9.627C9.18164 10.6351 8.82055 10.274 8.82055 9.82863C8.82055 9.38327 9.18164 9.02218 9.627 9.02218H10.5343C10.9796 9.02218 11.3407 9.38327 11.3407 9.82863C11.3407 10.274 10.9796 10.6351 10.5343 10.6351ZM10.5343 7.61089H9.627C9.18164 7.61089 8.82055 7.2498 8.82055 6.80444C8.82055 6.35907 9.18164 5.99798 9.627 5.99798H10.5343C10.9796 5.99798 11.3407 6.35907 11.3407 6.80444C11.3407 7.2498 10.9796 7.61089 10.5343 7.61089ZM15.3226 16.6835H14.4153C13.9699 16.6835 13.6089 16.3224 13.6089 15.877C13.6089 15.4317 13.9699 15.0706 14.4153 15.0706H15.3226C15.768 15.0706 16.129 15.4317 16.129 15.877C16.129 16.3224 15.768 16.6835 15.3226 16.6835ZM15.3226 13.6593H14.4153C13.9699 13.6593 13.6089 13.2982 13.6089 12.8528C13.6089 12.4075 13.9699 12.0464 14.4153 12.0464H15.3226C15.768 12.0464 16.129 12.4075 16.129 12.8528C16.129 13.2982 15.768 13.6593 15.3226 13.6593ZM15.3226 10.6351H14.4153C13.9699 10.6351 13.6089 10.274 13.6089 9.82863C13.6089 9.38327 13.9699 9.02218 14.4153 9.02218H15.3226C15.768 9.02218 16.129 9.38327 16.129 9.82863C16.129 10.274 15.768 10.6351 15.3226 10.6351ZM15.3226 7.61089H14.4153C13.9699 7.61089 13.6089 7.2498 13.6089 6.80444C13.6089 6.35907 13.9699 5.99798 14.4153 5.99798H15.3226C15.768 5.99798 16.129 6.35907 16.129 6.80444C16.129 7.2498 15.768 7.61089 15.3226 7.61089ZM10.8871 24.5968V20.3629C10.8871 20.1402 11.0676 19.9597 11.2903 19.9597H13.7097C13.9323 19.9597 14.1129 20.1402 14.1129 20.3629V24.5968C14.1129 24.8195 13.9323 25 13.7097 25H11.2903C11.0676 25 10.8871 24.8195 10.8871 24.5968Z" fill="#041C47"/>
</g>
<defs>
<clipPath id="clip0">
<rect width="25" height="25" fill="white"/>
</clipPath>
</defs>
</svg>
