<svg width="25" height="25" viewBox="0 0 25 25" fill="none" xmlns="http://www.w3.org/2000/svg">
<g clip-path="url(#clip0)">
<path d="M9.9103 16.4976H12.245C13.1853 16.5008 14.0562 16.9929 14.5441 17.7967L14.5843 17.8636C14.9009 18.3953 14.9615 19.0412 14.7494 19.6225H15.0039C15.1479 19.6232 15.2911 19.6005 15.428 19.5556L20.9233 17.7208C20.7903 17.3178 20.4414 17.0242 20.0216 16.9619C19.8024 16.9301 19.6404 16.7414 19.6421 16.52V16.4798C19.6335 16.0806 19.4481 15.7057 19.136 15.4566C18.8239 15.2074 18.4174 15.1096 18.0261 15.1897C17.8278 15.2305 17.6267 15.1336 17.5351 14.9531C17.0413 13.9823 16.0439 13.3714 14.9548 13.3727C14.7584 13.3717 14.5624 13.3911 14.37 13.4308C14.2338 13.458 14.0925 13.4219 13.9861 13.3326C13.882 13.2422 13.8259 13.1086 13.8343 12.971C13.8343 12.9576 13.8387 12.9129 13.8387 12.9041C13.8341 12.6201 13.6929 12.3558 13.4593 12.1943C13.9614 10.2727 14.9913 8.52989 16.4324 7.16319C16.2196 6.94128 16.0352 6.69387 15.8833 6.42664C16.812 5.50783 17.8529 4.70991 18.9814 4.05173C19.1984 3.93435 19.4696 4.01408 19.5885 4.23029C19.7059 4.44737 19.6261 4.71845 19.41 4.83739C18.3241 5.48513 17.3238 6.26649 16.4324 7.16319C16.4413 7.17657 16.4547 7.1855 16.4636 7.19888C17.246 8.00071 18.3358 8.42687 19.4546 8.36847C20.3521 8.32995 21.1861 7.89495 21.7313 7.18101C23.2268 5.21233 24.4544 1.44909 24.8651 0.0830695C24.4633 0.0518206 23.8518 0.0161285 23.1241 0.0161285C21.1019 0.0161285 18.2002 0.297369 16.4904 1.74375C15.7818 2.3555 15.3624 3.23652 15.3342 4.17223C15.3006 4.96049 15.491 5.7421 15.8833 6.4266C14.2443 7.95813 13.091 9.93726 12.5665 12.1183C12.359 12.2184 12.1977 12.3941 12.1156 12.6094C12.0672 12.734 11.9657 12.8306 11.8388 12.8728C11.7122 12.9167 11.5724 12.9002 11.4594 12.8281C10.4641 12.1936 9.14636 12.4485 8.45952 13.4085C8.3334 13.583 8.10084 13.643 7.90598 13.5513C7.66844 13.4345 7.40736 13.3734 7.14263 13.3728C6.31292 13.3756 5.59405 13.9485 5.40607 14.7567C6.22435 14.8608 6.99815 15.1882 7.64261 15.7031C8.28682 16.2167 9.08626 16.4968 9.9103 16.4976ZM14.0396 14.5245C14.659 14.1166 15.4799 14.2005 16.0039 14.7254C16.2453 14.9627 16.4008 15.2737 16.4458 15.6093C16.4802 15.8518 16.313 16.0768 16.0708 16.1137C16.0485 16.1137 16.0262 16.1182 16.0039 16.1182C15.7821 16.1166 15.5945 15.9537 15.562 15.7342C15.5442 15.5901 15.4781 15.4564 15.3745 15.3548C15.1483 15.1314 14.7969 15.0961 14.5307 15.27C14.3249 15.4044 14.0491 15.3471 13.9139 15.1418C13.7786 14.9365 13.8349 14.6605 14.0396 14.5245ZM8.95946 14.6227C9.10965 13.8962 9.74873 13.3744 10.4907 13.3727C10.8289 13.3717 11.1582 13.4814 11.4281 13.6852C11.5557 13.7809 11.6225 13.9374 11.6035 14.0958C11.5844 14.2541 11.4823 14.3902 11.3356 14.4529C11.189 14.5155 11.02 14.4952 10.8924 14.3995C10.7772 14.3112 10.6358 14.2641 10.4907 14.2655C10.1724 14.2653 9.8979 14.4893 9.83443 14.8012C9.79136 15.0087 9.60885 15.1576 9.39694 15.1583C9.36701 15.1575 9.33718 15.1546 9.30764 15.1494C9.06629 15.0998 8.91058 14.8642 8.95946 14.6227Z" fill="#041C47"/>
<path d="M2.00886 14.7142H1.11603C0.499689 14.7142 0 15.2139 0 15.8303V23.8657C0 24.4821 0.499689 24.9817 1.11603 24.9817H2.00886C2.62525 24.9817 3.12489 24.4821 3.12489 23.8657V15.8303C3.12489 15.2139 2.62525 14.7142 2.00886 14.7142Z" fill="#041C47"/>
<path d="M24.8429 17.9239C24.6442 17.6544 24.295 17.5428 23.9769 17.6472L21.7002 18.4061C21.6241 18.471 21.5278 18.5073 21.4278 18.5087C21.4189 18.5087 21.4145 18.5043 21.4055 18.5043L15.7093 20.4015C15.482 20.478 15.2438 20.5172 15.0039 20.5176H11.0398C10.3344 20.5159 9.64442 20.7241 9.05772 21.1158L8.72736 21.3345C8.59499 21.4223 8.42586 21.4327 8.28372 21.3619C8.14159 21.2912 8.04799 21.1499 8.03817 20.9914C8.02836 20.8328 8.10389 20.6812 8.23631 20.5935L8.56218 20.3747C9.29526 19.8843 10.1578 19.6233 11.0398 19.6248H13.7495C14.0334 19.2454 14.0599 18.7322 13.8165 18.3257L13.7763 18.2588C13.4526 17.722 12.8719 17.3935 12.2451 17.3927H9.91037C8.88478 17.3916 7.88999 17.0422 7.08904 16.4017C6.44472 15.888 5.64529 15.6079 4.82124 15.6071H3.99544C4.00731 15.681 4.01473 15.7555 4.01776 15.8303V23.8657C4.01551 24.0945 3.97323 24.3211 3.89276 24.5353H14.8656C15.3566 24.5355 15.8383 24.4012 16.2584 24.1469L24.6242 19.0534C24.8128 18.94 24.9443 18.7517 24.9858 18.5355C25.0278 18.3206 24.9758 18.098 24.8429 17.9239Z" fill="#041C47"/>
<path d="M14.5397 5.33509C14.4592 4.93867 14.4277 4.53385 14.4459 4.12976C14.4698 3.55717 14.6048 2.99469 14.8432 2.47357C13.9848 2.25561 13.0977 2.17275 12.2139 2.22802C12.5284 3.1837 12.9875 4.08552 13.5754 4.90205C13.8213 5.17596 14.1716 5.33323 14.5397 5.33509Z" fill="#041C47"/>
</g>
<defs>
<clipPath id="clip0">
<rect width="25" height="25" fill="white"/>
</clipPath>
</defs>
</svg>
