<svg width="25" height="25" viewBox="0 0 25 25" fill="none" xmlns="http://www.w3.org/2000/svg">
<path d="M21.7596 21.0102L16.1396 10.8942V10.3516H13.9423C13.5378 10.3516 13.2099 10.0237 13.2099 9.61914C13.2099 9.21459 13.5378 8.88672 13.9423 8.88672H16.1396V7.42188H12.4775C12.0729 7.42188 11.7451 7.094 11.7451 6.68945C11.7451 6.2849 12.0729 5.95703 12.4775 5.95703H16.1396V4.49219H13.9423C13.5378 4.49219 13.2099 4.16431 13.2099 3.75977C13.2099 3.35522 13.5378 3.02734 13.9423 3.02734H16.1396V1.46484H16.872C17.2764 1.46484 17.6044 1.13697 17.6044 0.732422C17.6044 0.327873 17.2764 0 16.872 0H8.08296C7.67841 0 7.35054 0.327873 7.35054 0.732422C7.35054 1.13697 7.67841 1.46484 8.08296 1.46484H8.81538V10.8963L3.26405 21.0236C2.28367 22.8123 3.57628 25 5.61905 25H19.412C21.4586 25 22.7549 22.8018 21.7596 21.0102Z" fill="#041C47"/>
</svg>
