<svg width="25" height="25" viewBox="0 0 25 25" fill="none" xmlns="http://www.w3.org/2000/svg">
<path d="M22.8027 12.8279H15.0338C13.8223 12.8279 12.8366 13.8136 12.8366 15.0251V22.794C12.8366 24.0056 13.8223 24.9913 15.0338 24.9913H22.8027C24.0143 24.9913 25 24.0056 25 22.794V15.0251C25 13.8135 24.0143 12.8279 22.8027 12.8279ZM20.6555 19.642H19.6507V20.6469C19.6507 21.0514 19.3228 21.3793 18.9183 21.3793C18.5138 21.3793 18.1859 21.0514 18.1859 20.6469V19.642H17.181C16.7765 19.642 16.4485 19.3141 16.4485 18.9096C16.4485 18.5051 16.7765 18.1772 17.181 18.1772H18.1859V17.1723C18.1859 16.7678 18.5138 16.4399 18.9183 16.4399C19.3228 16.4399 19.6507 16.7678 19.6507 17.1723V18.1772H20.6555C21.06 18.1772 21.388 18.5051 21.388 18.9096C21.388 19.3141 21.06 19.642 20.6555 19.642Z" fill="#041C47"/>
<path d="M9.96611 12.8279H2.19727C0.985693 12.8279 0 13.8136 0 15.0251V22.794C0 24.0056 0.985693 24.9913 2.19727 24.9913H9.96611C11.1777 24.9913 12.1634 24.0056 12.1634 22.794V15.0251C12.1634 13.8135 11.1777 12.8279 9.96611 12.8279ZM7.82803 19.6201C8.11406 19.9061 8.11406 20.3699 7.82803 20.6559C7.68501 20.7989 7.49756 20.8705 7.31016 20.8705C7.12275 20.8705 6.93525 20.7989 6.79229 20.6559L6.08174 19.9454L5.37119 20.6559C5.22817 20.7989 5.04072 20.8705 4.85332 20.8705C4.66592 20.8705 4.47842 20.7989 4.33545 20.6559C4.04941 20.3699 4.04941 19.9062 4.33545 19.6201L5.046 18.9096L4.33545 18.199C4.04941 17.913 4.04941 17.4493 4.33545 17.1632C4.62144 16.8772 5.08521 16.8772 5.37124 17.1632L6.08179 17.8738L6.79233 17.1632C7.07832 16.8772 7.54209 16.8772 7.82813 17.1632C8.11416 17.4492 8.11416 17.913 7.82813 18.199L7.11758 18.9096L7.82803 19.6201Z" fill="#041C47"/>
<path d="M9.96611 0.00872421H2.19727C0.985693 0.00872421 0 0.994418 0 2.20599V9.97484C0 11.1864 0.985693 12.1721 2.19727 12.1721H9.96611C11.1777 12.1721 12.1634 11.1864 12.1634 9.97484V2.20599C12.1634 0.994369 11.1777 0.00872421 9.96611 0.00872421ZM7.81899 6.82279H4.34443C3.93994 6.82279 3.61201 6.49486 3.61201 6.09036C3.61201 5.68587 3.93994 5.35794 4.34443 5.35794H7.81899C8.22349 5.35794 8.55142 5.68587 8.55142 6.09036C8.55142 6.49486 8.22349 6.82279 7.81899 6.82279Z" fill="#041C47"/>
<path d="M22.8027 0.00872421H15.0338C13.8223 0.00872421 12.8366 0.994418 12.8366 2.20599V9.97484C12.8366 11.1864 13.8223 12.1721 15.0338 12.1721H22.8027C24.0143 12.1721 25 11.1864 25 9.97484V2.20599C25 0.994369 24.0143 0.00872421 22.8027 0.00872421ZM21.048 5.95418H19.3009L18.1482 7.41312C18.0083 7.59012 17.7959 7.69144 17.5736 7.69144C17.5439 7.69144 17.5141 7.68963 17.4842 7.68602C17.2304 7.65482 17.0112 7.49364 16.906 7.26063L16.1211 5.52337C15.9545 5.15472 16.1183 4.72088 16.4869 4.55433C16.8556 4.38768 17.2894 4.5516 17.4559 4.92015L17.7452 5.56034L18.3716 4.76766C18.5105 4.59183 18.7222 4.48934 18.9463 4.48934H21.0481C21.4526 4.48934 21.7804 4.81727 21.7804 5.22176C21.7804 5.62625 21.4525 5.95418 21.048 5.95418Z" fill="#041C47"/>
</svg>
