<svg width="25" height="25" viewBox="0 0 25 25" fill="none" xmlns="http://www.w3.org/2000/svg">
<g clip-path="url(#clip0)">
<path d="M0.732422 25H14.0137C14.4182 25 14.7461 24.6721 14.7461 24.2676V23.4863C14.7461 22.6772 14.0903 22.0215 13.2812 22.0215V21.1458C13.2812 19.9863 12.3379 19.043 11.1784 19.043H3.5677C2.40822 19.043 1.46484 19.9863 1.46484 21.1458V22.0215C0.655746 22.0215 0 22.6772 0 23.4863V24.2676C0 24.6719 0.328064 25 0.732422 25Z" fill="#041C47"/>
<path d="M9.16671 16.1301C9.65347 16.7761 10.572 16.9052 11.2181 16.4183C11.8643 15.9315 11.9932 15.0129 11.5065 14.3667L7.09857 8.51745C6.61163 7.87124 5.69324 7.7423 5.04722 8.22906C4.40101 8.716 4.27188 9.63439 4.75883 10.2806L9.16671 16.1301Z" fill="#041C47"/>
<path d="M19.6955 8.19555C20.1824 8.84157 21.1008 8.9707 21.747 8.48375C22.393 7.99699 22.5222 7.07861 22.0352 6.4324L17.6273 0.58313C17.1406 -0.0630801 16.222 -0.192208 15.576 0.294738C14.93 0.781685 14.8008 1.70007 15.2878 2.34628L19.6955 8.19555Z" fill="#041C47"/>
<path d="M16.4825 12.4512C17.5651 11.6354 18.3778 10.6224 18.8862 9.55582L13.7573 2.74964C12.5919 2.94438 11.3943 3.4462 10.3115 4.26216C9.22887 5.07794 8.41615 6.09093 7.90784 7.15733L13.0367 13.9639C14.2021 13.7692 15.3997 13.2671 16.4825 12.4512Z" fill="#041C47"/>
<path d="M18.4603 12.6419C18.1192 12.9894 17.7601 13.3226 17.3641 13.6211C16.968 13.9194 16.5485 14.1729 16.1207 14.4051L17.0757 15.6725L19.4155 13.9095L18.4603 12.6419Z" fill="#041C47"/>
<path d="M20.2971 15.0793L17.9573 16.8423L22.3652 22.6917C22.8521 23.3379 23.7705 23.4669 24.4166 22.9801C25.0628 22.4932 25.1917 21.5748 24.7049 20.9286L20.2971 15.0793Z" fill="#041C47"/>
</g>
<defs>
<clipPath id="clip0">
<rect width="25" height="25" fill="white"/>
</clipPath>
</defs>
</svg>
