<svg width="25" height="25" viewBox="0 0 25 25" fill="none" xmlns="http://www.w3.org/2000/svg">
<path d="M21.3386 3.66143C20.5198 2.84219 19.6043 2.14868 18.6058 1.58965C18.1283 1.76836 17.5997 2.0647 17.1461 2.55708C16.7902 2.94356 16.4806 3.45068 16.2795 4.11616C17.8946 4.40386 19.4801 4.89775 21.0264 5.59429C21.0269 5.59429 21.0274 5.59429 21.0274 5.59429C21.9516 6.01079 22.862 6.49907 23.7566 7.05913C23.1481 5.79937 22.3366 4.65884 21.3386 3.66143Z" fill="#041C47"/>
<path d="M21.4262 18.8824C21.3804 18.2933 21.2836 17.7159 21.1166 17.1736C20.7068 15.8442 19.7297 14.7907 18.6961 13.6747C18.2582 13.2027 17.8055 12.7149 17.3977 12.2021C15.9735 10.4114 14.415 8.08603 14.4323 5.49951C13.3916 5.40888 12.3381 5.41039 11.2735 5.50307C11.2063 6.2373 11.1548 7.01376 11.1278 7.82382C10.9894 11.9939 11.4909 17.8182 14.3504 23.3167C14.5947 23.7877 14.8575 24.2566 15.1381 24.722C15.8987 24.558 16.6426 24.3228 17.3662 24.0173C18.855 23.3874 20.1915 22.4862 21.3387 21.3386C21.355 21.3223 21.3713 21.3055 21.3876 21.2892C21.4598 20.5051 21.4898 19.6833 21.4262 18.8824Z" fill="#041C47"/>
<path d="M12.5988 23.472C12.5825 23.4725 12.5657 23.4725 12.5494 23.472C12.5657 23.472 12.582 23.472 12.5988 23.4715C11.6055 21.4501 10.8442 19.2775 10.3234 16.9766C9.66554 14.0708 9.38858 10.9562 9.49957 7.71947C9.5235 7.02699 9.56373 6.35951 9.61666 5.72098C8.87784 5.84979 8.13448 6.02191 7.38551 6.23729C7.20626 6.28924 7.0296 6.3432 6.85548 6.39769C6.76432 7.8992 6.36056 9.68026 5.36007 11.6584C3.98531 14.3758 3.55001 16.8921 3.45577 18.7144V18.7149C3.44151 18.9832 3.43541 19.2368 3.43438 19.4735C3.43185 20.1329 3.47003 20.7149 3.5235 21.1986C3.56935 21.2454 3.61515 21.2923 3.66148 21.3386C4.80865 22.4863 6.14518 23.3875 7.63399 24.0173C9.17623 24.669 10.8132 25 12.5001 25C12.7989 25 13.0963 24.9898 13.3916 24.9689C13.1126 24.4796 12.8484 23.9806 12.5988 23.472Z" fill="#041C47"/>
<path d="M2.33198 8.36968C2.33149 8.36968 2.33149 8.36968 2.33149 8.36968C1.525 8.82285 0.851367 9.25918 0.333545 9.61968C0.111523 10.557 0 11.5199 0 12.5C0 14.1869 0.330957 15.8238 0.982666 17.3661C1.22095 17.9292 1.49795 18.471 1.8126 18.9888C1.83857 18.1584 1.92817 17.1823 2.13335 16.1044C2.42915 14.5463 2.96685 12.7755 3.90474 10.9221C4.63232 9.48423 5.00811 8.1711 5.16084 7.00767C4.09775 7.43789 3.14663 7.91192 2.33198 8.36968Z" fill="#041C47"/>
<path d="M24.6797 9.67667C24.0041 9.16193 23.3203 8.6945 22.6294 8.2734C22.6289 8.27291 22.6289 8.27291 22.6283 8.27238C20.5097 6.98214 18.3208 6.1298 16.0688 5.71891C16.1472 7.73571 17.4674 9.67003 18.6742 11.1868C19.0433 11.6517 19.4552 12.0957 19.8916 12.5662C20.9955 13.7571 22.136 14.9873 22.6609 16.6497C22.6655 16.6639 22.6701 16.6782 22.6747 16.6929C22.9207 17.4882 23.0398 18.3284 23.0774 19.1659C23.4379 18.5946 23.7521 17.9938 24.0174 17.366C24.669 15.8238 25 14.1869 25 12.5C25 11.5397 24.8926 10.5963 24.6797 9.67667Z" fill="#041C47"/>
<path d="M7.63393 0.982676C7.10238 1.20724 6.59066 1.4669 6.09979 1.75968C6.27548 2.17823 6.45009 2.67921 6.58861 3.25406V3.25455C6.60541 3.32276 6.62172 3.392 6.637 3.46227C6.71796 3.83092 6.78568 4.2464 6.82846 4.70108C6.8641 4.69088 6.89872 4.68072 6.93388 4.67052C7.88754 4.39557 8.83915 4.18785 9.78774 4.04474C9.88857 3.21988 10.0057 2.46227 10.1263 1.78507C10.2343 1.17867 10.3453 0.635899 10.4497 0.166416C9.48427 0.325889 8.54281 0.598789 7.63393 0.982676Z" fill="#041C47"/>
<path d="M12.5 0C12.388 0 12.2759 0.00151367 12.1639 0.00458984C12.0616 0.432275 11.9475 0.950635 11.833 1.54736C11.833 1.54785 11.833 1.54785 11.833 1.54785C11.7027 2.22505 11.5718 3.00254 11.4577 3.86147C12.529 3.78765 13.5932 3.79834 14.6471 3.89561C14.8503 3.10688 15.1634 2.46738 15.531 1.95161C15.8991 1.43428 16.3223 1.04019 16.7454 0.739795C15.3874 0.248975 13.9623 0 12.5 0Z" fill="#041C47"/>
<path d="M5.14363 4.35844C5.04636 3.71689 4.89006 3.16494 4.72356 2.7123C4.35393 3.00659 3.99954 3.32329 3.66145 3.66137C2.64568 4.67665 1.82288 5.84062 1.21082 7.12675C1.96082 6.69243 2.82996 6.23774 3.80295 5.80957C3.80295 5.80908 3.80295 5.80908 3.80344 5.80908C4.25764 5.60898 4.73469 5.4145 5.23269 5.23017C5.21643 4.92363 5.18538 4.6329 5.14363 4.35844Z" fill="#041C47"/>
</svg>
