<svg width="25" height="25" viewBox="0 0 25 25" fill="none" xmlns="http://www.w3.org/2000/svg">
<g clip-path="url(#clip0)">
<path d="M24.7855 5.04832L19.9517 0.214581C19.6657 -0.071405 19.202 -0.071405 18.9159 0.214581C18.6299 0.500568 18.6299 0.964337 18.9159 1.25037L19.7791 2.11356L17.7075 4.18514L20.8149 7.29256L22.8866 5.22093L23.7497 6.08411C23.8928 6.22713 24.0802 6.29866 24.2676 6.29866C24.455 6.29866 24.6425 6.22713 24.7855 6.08411C25.0715 5.79808 25.0715 5.33431 24.7855 5.04832Z" fill="#041C47"/>
<path d="M14.4275 2.9767C14.1416 2.69071 13.6778 2.69071 13.3917 2.9767C13.1057 3.26268 13.1057 3.72645 13.3917 4.01249L13.9097 4.53041L12.8739 5.5662L14.7729 7.46517C15.0589 7.75116 15.0589 8.21493 14.7729 8.50096C14.6298 8.64398 14.4424 8.71551 14.255 8.71551C14.0676 8.71551 13.8801 8.64398 13.7371 8.50096L11.8381 6.60199L10.8023 7.63783L12.7013 9.5368C12.9873 9.82279 12.9873 10.2866 12.7013 10.5726C12.5583 10.7156 12.3708 10.7871 12.1834 10.7871C11.996 10.7871 11.8085 10.7156 11.6655 10.5726L9.76655 8.67362L8.73071 9.70946L15.2908 16.2695L20.4698 11.0905L20.9877 11.6084C21.1308 11.7514 21.3182 11.8229 21.5056 11.8229C21.693 11.8229 21.8805 11.7514 22.0235 11.6084C22.3095 11.3224 22.3095 10.8586 22.0235 10.5726L14.4275 2.9767Z" fill="#041C47"/>
<path d="M6.65899 11.781L8.55797 13.68C8.844 13.966 8.844 14.4297 8.55797 14.7158C8.41495 14.8588 8.2275 14.9303 8.04009 14.9303C7.85269 14.9303 7.66519 14.8588 7.52222 14.7158L5.62324 12.8168L5.10532 13.3347C4.24858 14.1915 4.24858 15.5854 5.10532 16.4421L8.55801 19.8948C8.98634 20.3232 9.54903 20.5374 10.1117 20.5374C10.6744 20.5374 11.2371 20.3232 11.6654 19.8948L14.2549 17.3053L7.69483 10.7453L6.65899 11.781Z" fill="#041C47"/>
<path d="M3.03416 18.5137C2.74812 18.7997 2.74812 19.2635 3.03416 19.5495L3.72468 20.24L0.215015 23.7497C-0.0710205 24.0357 -0.0710205 24.4995 0.215015 24.7855C0.358032 24.9285 0.545435 25 0.732886 25C0.920337 25 1.10779 24.9285 1.25076 24.7855L4.76042 21.2758L5.45095 21.9663C5.73699 22.2524 6.20071 22.2524 6.48674 21.9663L7.52253 20.9305L4.0699 17.4779L3.03416 18.5137Z" fill="#041C47"/>
</g>
<defs>
<clipPath id="clip0">
<rect width="25" height="25" fill="white"/>
</clipPath>
</defs>
</svg>
