<svg width="25" height="25" viewBox="0 0 25 25" fill="none" xmlns="http://www.w3.org/2000/svg">
<path d="M13.2773 0V3.43428H16.1282V4.89912H13.2773V6.55928H17.1699V8.02412H13.2773V9.68428H16.1282V11.1491H13.2773V12.8093H17.1699V14.2741H13.2773V15.9343H16.1282V17.3991H13.2773V25H21.0625V0H13.2773ZM16.4375 20.4427H17.9023V21.9076H16.4375V20.4427Z" fill="#041C47"/>
<path d="M11.7227 4.99678V4.99595L8.55869 0H7.10146L3.9375 4.99595V4.99678H11.7227Z" fill="#041C47"/>
<path d="M3.9375 21.1075C3.9375 23.2539 5.68369 25 7.83008 25C9.97646 25 11.7227 23.2538 11.7227 21.1075H3.9375Z" fill="#041C47"/>
<path d="M3.9375 6.46156V19.5801H11.7227V6.46156H3.9375ZM8.5625 16.1458H7.09766V9.89584H8.5625V16.1458Z" fill="#041C47"/>
</svg>
