<svg width="25" height="25" viewBox="0 0 25 25" fill="none" xmlns="http://www.w3.org/2000/svg">
<path d="M20.1964 9.63905C20.151 9.55889 20.0851 9.49221 20.0055 9.44582C19.9259 9.39943 19.8354 9.37499 19.7433 9.37499H12.9204L14.0642 0.635012C14.0765 0.518042 14.0491 0.400344 13.9863 0.300869C13.9236 0.201394 13.8292 0.125931 13.7183 0.0866296C13.6075 0.0473284 13.4866 0.046476 13.3752 0.0842099C13.2638 0.121944 13.1684 0.196068 13.1042 0.294648L4.80683 14.8314C4.7583 14.9103 4.73171 15.0007 4.72979 15.0933C4.72786 15.186 4.75068 15.2774 4.79588 15.3583C4.84108 15.4391 4.90704 15.5065 4.98694 15.5534C5.06684 15.6003 5.1578 15.625 5.25045 15.625H11.9714L11.0649 24.3781C11.056 24.4947 11.0863 24.6109 11.1511 24.7082C11.2158 24.8056 11.3113 24.8785 11.4222 24.9153C11.5332 24.9521 11.6532 24.9508 11.7634 24.9115C11.8735 24.8723 11.9673 24.7973 12.0299 24.6986L20.1902 10.1634C20.2375 10.0844 20.263 9.99418 20.2641 9.90207C20.2652 9.80995 20.2418 9.71919 20.1964 9.63905Z" fill="#041C47"/>
</svg>
