<svg width="25" height="25" viewBox="0 0 25 25" fill="none" xmlns="http://www.w3.org/2000/svg">
<path d="M11.2583 13.9698C11.7633 13.6542 12.2207 13.2694 12.6171 12.8282L14.046 13.6534L15.3471 11.3998L13.921 10.5764C14.1023 10.0228 14.209 9.43565 14.229 8.827L15.8514 8.54094L15.3993 5.97827L13.7772 6.26433C13.5531 5.70874 13.2523 5.19213 12.8876 4.72785L13.9479 3.46436L11.9545 1.79181L10.8951 3.05422C10.3776 2.77693 9.81727 2.56965 9.22671 2.44528V0.798859H6.62453V2.44528C6.0339 2.56965 5.47354 2.77693 4.95603 3.05422L3.89665 1.79181L1.90323 3.46442L2.96345 4.72791C2.59878 5.19219 2.29804 5.70886 2.07387 6.26439L0.451801 5.97833L0 8.541L1.62213 8.82707C1.64212 9.43577 1.74883 10.0228 1.93015 10.5766L0.503964 11.3999L1.80512 13.6535L3.23411 12.8285C3.63034 13.2695 4.08776 13.6544 4.59285 13.97L4.02879 15.5195L6.47412 16.4094L7.03741 14.8619C7.32771 14.903 7.62416 14.9248 7.92562 14.9248C8.22708 14.9248 8.52358 14.9031 8.81388 14.8619L9.37711 16.4095L11.8223 15.5194L11.2583 13.9698ZM7.9255 11.9405C6.09311 11.9405 4.60234 10.4498 4.60234 8.61734C4.60234 6.78501 6.09311 5.29419 7.9255 5.29419C9.75789 5.29419 11.2487 6.78501 11.2487 8.61734C11.2487 10.4498 9.75795 11.9405 7.9255 11.9405Z" fill="#041C47"/>
<path d="M22.4433 15.9239L21.3216 16.2868C21.1077 15.915 20.8433 15.5784 20.5388 15.2853L21.1657 14.2848L19.5873 13.2959L18.9607 14.2955C18.5666 14.15 18.1489 14.0584 17.7178 14.0287L17.5551 12.8614L15.7102 13.1185L15.8729 14.2859C15.4665 14.4323 15.0895 14.6348 14.7501 14.8825L13.8744 14.092L12.6263 15.4748L13.5027 16.2661C13.2901 16.6312 13.1281 17.0272 13.0241 17.4434L11.8457 17.4008L11.7783 19.2622L12.9566 19.3049C13.031 19.7345 13.1647 20.14 13.348 20.5148L12.4183 21.2395L13.5633 22.7086L14.4949 21.9826C14.8194 22.2561 15.1819 22.4837 15.571 22.6577L15.3241 23.8122L17.1457 24.2013L17.3924 23.0486C17.6022 23.0492 17.8145 23.0349 18.0281 23.0052C18.2419 22.9755 18.4501 22.9306 18.6516 22.873L19.2041 23.9145L20.8498 23.0418L20.2968 21.9991C20.6238 21.7254 20.9098 21.4071 21.1474 21.0554L22.2418 21.4992L22.9417 19.7729L21.8493 19.3299C21.923 18.9196 21.9406 18.4928 21.8949 18.0591L23.0169 17.696L22.4433 15.9239ZM17.7336 20.8895C16.4342 21.0704 15.2299 20.1608 15.049 18.8616C14.8678 17.5624 15.7776 16.358 17.0769 16.1771C18.3761 15.9959 19.5801 16.9057 19.7615 18.205C19.9422 19.5041 19.0327 20.7082 17.7336 20.8895Z" fill="#041C47"/>
<path d="M24.9563 9.46852L24.9999 7.99859L24.0697 7.97095C24.0114 7.647 23.9072 7.3262 23.7543 7.01776L24.4848 6.44062L23.5734 5.28695L22.843 5.86385C22.5825 5.64738 22.2943 5.47089 21.9884 5.33768L22.1773 4.42507L20.7375 4.12689L20.5484 5.03891C20.2166 5.03939 19.8825 5.08648 19.5552 5.18286L19.114 4.36359L17.8192 5.06093L18.2603 5.88032C17.9999 6.10031 17.7765 6.35384 17.5933 6.6303L16.7282 6.28592L16.1844 7.65225L17.0503 7.99716C16.9933 8.32589 16.9822 8.6631 17.0196 8.99977L16.1357 9.2921L16.5972 10.6884L17.4811 10.3962C17.6541 10.6938 17.8646 10.957 18.1033 11.184L17.6145 11.9759L18.8656 12.7486L19.3555 11.9553C19.671 12.0684 20.0018 12.1374 20.3375 12.159L20.4719 13.0813L21.9272 12.8688L21.7931 11.9476C21.9484 11.8905 22.1017 11.8218 22.2517 11.741C22.4019 11.6603 22.5436 11.5698 22.6768 11.4718L23.372 12.0908L24.3501 10.9927L23.6544 10.373C23.8212 10.0806 23.9453 9.7664 24.0246 9.44083L24.9563 9.46852ZM21.4523 10.2562C20.5402 10.7472 19.3989 10.4049 18.9081 9.49323C18.417 8.58145 18.7593 7.4399 19.6713 6.94912C20.5829 6.45799 21.7241 6.80051 22.2153 7.71229C22.706 8.62413 22.3639 9.76509 21.4523 10.2562Z" fill="#041C47"/>
</svg>
