<svg width="25" height="25" viewBox="0 0 25 25" fill="none" xmlns="http://www.w3.org/2000/svg">
<path d="M7.65029 17.8164L0 13.6442V11.3333L7.65029 7.18472V9.89896L2.31944 12.4598L7.65029 15.1172V17.8164Z" fill="#FFBE24"/>
<mask id="path-3-inside-1" fill="white">
<path d="M8.95697 19.2765L14.0304 5.72351H15.6332L10.548 19.2765H8.95697Z"/>
</mask>
<path d="M8.95697 19.2765L14.0304 5.72351H15.6332L10.548 19.2765H8.95697Z" fill="#FFBE24"/>
<path d="M8.95697 19.2765L7.08391 18.5753L6.07275 21.2765H8.95697V19.2765ZM14.0304 5.72351V3.72351H12.6435L12.1573 5.02235L14.0304 5.72351ZM15.6332 5.72351L17.5057 6.4261L18.5198 3.72351H15.6332V5.72351ZM10.548 19.2765V21.2765H11.9337L12.4205 19.9791L10.548 19.2765ZM10.83 19.9776L15.9035 6.42467L12.1573 5.02235L7.08391 18.5753L10.83 19.9776ZM14.0304 7.72351H15.6332V3.72351H14.0304V7.72351ZM13.7607 5.02092L8.67546 18.5739L12.4205 19.9791L17.5057 6.4261L13.7607 5.02092ZM10.548 17.2765H8.95697V21.2765H10.548V17.2765Z" fill="#FFBE24" mask="url(#path-3-inside-1)"/>
<path d="M17.3497 17.8164V15.1172L22.6795 12.4812L17.3497 9.86568V7.18362L24.9999 11.3376V13.6345L17.3497 17.8164Z" fill="#FFBE24"/>
</svg>
