<svg width="25" height="25" viewBox="0 0 25 25" fill="none" xmlns="http://www.w3.org/2000/svg">
<g clip-path="url(#clip0)">
<path d="M16.8945 8.8379H13.5534C14.2567 8.05802 14.6973 7.03609 14.6973 5.90533C14.6973 5.64571 14.5599 5.40538 14.3354 5.27374C14.1107 5.14141 13.8347 5.13926 13.6072 5.26588C12.8555 5.68648 12.0101 5.90821 11.161 5.90821H7.37305C5.50005 5.90821 3.85576 7.11182 3.24155 8.8379H0.732422C0.327588 8.8379 0 9.16549 0 9.57032C0 9.97516 0.327588 10.3027 0.732422 10.3027H1.46484V11.7676H16.1621V10.3027H16.8945C17.2994 10.3027 17.627 9.97516 17.627 9.57032C17.627 9.16549 17.2994 8.8379 16.8945 8.8379Z" fill="#041C47"/>
<path d="M8.83789 17.6758C6.11206 17.6758 4.44336 18.6242 4.44336 19.1406C4.44336 19.657 6.11206 20.6055 8.83789 20.6055C11.5637 20.6055 13.2324 19.657 13.2324 19.1406C13.2324 18.6242 11.5637 17.6758 8.83789 17.6758Z" fill="#041C47"/>
<path d="M15.4297 13.2324H2.24609C1.03447 13.2324 0 14.2181 0 15.4297V21.3379C0 23.3571 1.69175 25 3.71094 25H13.9648C15.984 25 17.627 23.3571 17.627 21.3379V15.4297C17.627 14.2181 16.6413 13.2324 15.4297 13.2324ZM8.83789 22.0703C5.92607 22.0703 2.97852 21.064 2.97852 19.1406C2.97852 15.294 14.6973 15.294 14.6973 19.1406C14.6973 21.064 11.7497 22.0703 8.83789 22.0703Z" fill="#041C47"/>
<path d="M14.6973 0C11.1547 0 8.03209 1.84556 6.19 4.5772C6.57491 4.49692 6.96813 4.44336 7.37306 4.44336H11.161C11.7604 4.44336 12.3591 4.28599 12.892 3.98774C13.2217 3.80391 13.5915 3.70806 13.9649 3.70806C14.3561 3.70806 14.7416 3.81318 15.0792 4.01133C15.7459 4.40259 16.1621 5.12856 16.1621 5.90532C16.1621 6.41514 16.0762 6.90112 15.9533 7.37305H16.8945C18.1062 7.37305 19.0918 8.35869 19.0918 9.57031C19.0918 10.5239 18.4776 11.3293 17.627 11.6327V12.5C17.627 12.5059 17.6254 12.5114 17.6253 12.5172C18.5103 13.1864 19.0918 14.2373 19.0918 15.4297V19.6055C22.5529 17.9586 25 14.3908 25 10.3027C25 4.6396 20.3603 0 14.6973 0Z" fill="#041C47"/>
</g>
<defs>
<clipPath id="clip0">
<rect width="25" height="25" fill="white"/>
</clipPath>
</defs>
</svg>
