<svg width="25" height="25" viewBox="0 0 25 25" fill="none" xmlns="http://www.w3.org/2000/svg">
<g clip-path="url(#clip0)">
<path d="M23.0564 1.92642C20.4855 -0.643159 16.3035 -0.643159 13.7325 1.92642L8.29663 7.36227L14.4682 13.5339C15.7384 12.4761 17.3488 11.8138 19.127 11.8138C20.1469 11.8138 21.1175 12.0257 22.0006 12.404L23.0564 11.2505C25.6267 8.68014 25.6267 4.49747 23.0564 1.92642Z" fill="#041C47"/>
<path d="M13.4409 14.579L7.26073 8.39883L1.94052 13.7243C-0.629749 16.2945 -0.629749 20.4773 1.94052 23.0483C4.51146 25.6177 8.74227 25.6667 11.3133 23.097L12.3918 22.0133C12.0135 21.1302 11.8016 20.1597 11.8016 19.1398C11.8017 17.4072 12.4316 15.8345 13.4409 14.579Z" fill="#041C47"/>
<path d="M13.2668 19.1398C13.2668 22.1253 15.5076 24.5619 18.3944 24.9261V13.3534C15.5076 13.7176 13.2668 16.1541 13.2668 19.1398Z" fill="#041C47"/>
<path d="M19.8595 13.3534V24.9261C22.7463 24.5619 24.9872 22.1253 24.9872 19.1398C24.9872 16.1542 22.7463 13.7176 19.8595 13.3534Z" fill="#041C47"/>
</g>
<defs>
<clipPath id="clip0">
<rect width="25" height="25" fill="white"/>
</clipPath>
</defs>
</svg>
