<svg width="25" height="25" viewBox="0 0 25 25" fill="none" xmlns="http://www.w3.org/2000/svg">
<g clip-path="url(#clip0)">
<path d="M20.2468 0.00559151C16.2388 0.35882 13.2813 2.35937 11.5571 5.25148C10.4017 6.69996 8.09356 11.1222 7.25414 13.4372C5.73211 16.3159 4.40487 19.7411 3.3662 22.8288C2.73128 24.717 5.58217 25.9489 6.22073 24.0522C6.99751 21.7421 7.93595 19.2444 8.99644 16.9266C10.0488 19.282 11.1182 21.6297 12.2664 23.9403C13.1564 25.7339 15.8343 24.1609 14.9476 22.3734C13.7654 19.9949 12.6673 17.5785 11.5854 15.154C11.5992 15.1071 11.6166 15.0614 11.6311 15.015C11.8114 15.0663 12.0102 15.0821 12.2292 15.0404C13.8847 14.7296 15.5401 14.4197 17.1967 14.1089C17.9043 13.9759 18.1755 13.2015 18.064 12.5816C17.7293 10.7237 16.6709 9.43121 15.3533 8.20825C15.1577 7.54302 14.5054 6.95457 13.7816 6.36976C15.2491 3.9974 17.6449 2.70977 20.7633 2.43495C22.3549 2.29551 21.8246 -0.133032 20.2468 0.00559151ZM14.2152 10.5657C14.6247 10.9916 14.973 11.4398 15.2361 11.9588C14.4351 12.1091 13.6337 12.2591 12.8326 12.4094C13.2368 11.7587 13.702 11.1444 14.2152 10.5657Z" fill="#041C47"/>
<path d="M17.6425 8.45081C18.8199 8.45081 19.7744 7.49632 19.7744 6.31891C19.7744 5.1415 18.8199 4.18701 17.6425 4.18701C16.465 4.18701 15.5106 5.1415 15.5106 6.31891C15.5106 7.49632 16.465 8.45081 17.6425 8.45081Z" fill="#041C47"/>
</g>
<defs>
<clipPath id="clip0">
<rect width="25" height="25" fill="white"/>
</clipPath>
</defs>
</svg>
