<svg width="25" height="25" viewBox="0 0 25 25" fill="none" xmlns="http://www.w3.org/2000/svg">
<g clip-path="url(#clip0)">
<path d="M16.718 13.2496C15.593 11.4946 13.6771 10.4467 11.5927 10.4467C9.50837 10.4467 7.59244 11.4946 6.46768 13.2496L3.75695 17.4784C3.3072 18.1799 3.09968 18.9905 3.15671 19.8219C3.21374 20.6535 3.53017 21.4279 4.07166 22.0619C4.61354 22.6953 5.32956 23.1283 6.14228 23.3141C6.955 23.4999 7.78813 23.4205 8.55145 23.085L8.60257 23.0623C10.5233 22.2349 12.7181 22.2425 14.6338 23.085C15.128 23.3023 15.6516 23.4121 16.1799 23.4121C16.4671 23.4121 16.7561 23.3795 17.0424 23.3143C17.8551 23.1287 18.5711 22.6957 19.1132 22.0621C19.6549 21.4287 19.9715 20.6541 20.0287 19.8223C20.086 18.9905 19.8784 18.1801 19.4287 17.4782L16.718 13.2496Z" fill="#041C47"/>
<path d="M4.48663 13.2441C5.29306 12.9343 5.9057 12.2845 6.21164 11.4142C6.50289 10.586 6.47905 9.651 6.14431 8.78125C5.80938 7.91207 5.20017 7.20254 4.42884 6.78311C3.6186 6.34271 2.72844 6.27099 1.92335 6.58132C0.303625 7.20406 -0.439669 9.20564 0.266622 11.0441C0.830816 12.5074 2.1467 13.4312 3.47707 13.4312C3.81677 13.4312 4.15742 13.3709 4.48663 13.2441Z" fill="#041C47"/>
<path d="M9.74673 9.93098C11.7716 9.93098 13.4189 8.05416 13.4189 5.74722C13.4189 3.43971 11.7716 1.5625 9.74673 1.5625C7.72208 1.5625 6.07489 3.43971 6.07489 5.74722C6.07489 8.05416 7.72208 9.93098 9.74673 9.93098Z" fill="#041C47"/>
<path d="M16.0887 10.9589H16.0889C16.4003 11.0622 16.7181 11.1116 17.0345 11.1116C18.5112 11.1116 19.9503 10.0369 20.4994 8.3851C20.8157 7.43428 20.7949 6.42892 20.4409 5.5544C20.0705 4.63888 19.384 3.97436 18.5078 3.6831C17.6313 3.39185 16.6836 3.51335 15.8388 4.0249C15.0318 4.51356 14.4134 5.30645 14.0976 6.25726C13.431 8.26303 14.3242 10.3722 16.0887 10.9589Z" fill="#041C47"/>
<path d="M23.822 10.4706L23.8214 10.47C22.4251 9.43851 20.3367 9.88559 19.1658 11.4672C17.996 13.0495 18.1789 15.1768 19.5732 16.209C20.0817 16.5857 20.6825 16.7658 21.2974 16.7658C22.3692 16.7658 23.4842 16.2188 24.2296 15.2128C25.3992 13.6305 25.2165 11.5032 23.822 10.4706Z" fill="#041C47"/>
</g>
<defs>
<clipPath id="clip0">
<rect width="25" height="25" fill="white"/>
</clipPath>
</defs>
</svg>
