<svg width="25" height="25" viewBox="0 0 25 25" fill="none" xmlns="http://www.w3.org/2000/svg">
<g clip-path="url(#clip0)">
<path d="M20.5578 7.95896C19.6589 7.05548 18.4712 6.61621 16.9261 6.61621C16.0176 6.61621 15.0009 6.76277 13.7274 7.07787C13.3992 7.15897 13.0626 7.19825 12.7251 7.21303C12.6715 6.94355 12.6043 6.67365 12.5232 6.40544L14.1004 6.17059C16.1206 5.86986 17.6805 4.31 17.9812 2.28974L18.3221 0L16.0324 0.340863C14.0121 0.642022 12.4522 2.20146 12.1515 4.22172L12.0142 5.14378C11.5462 4.24537 10.873 3.45932 9.94413 2.96386C9.73759 2.85362 9.48247 2.93218 9.37223 3.13788C9.26241 3.34401 9.34055 3.59955 9.54625 3.70937C10.8358 4.39701 11.5471 5.78791 11.858 7.18558C11.6607 7.16066 11.4647 7.12602 11.2721 7.07829C10.0155 6.76742 8.9697 6.61663 8.0734 6.61663C6.52875 6.61663 5.34016 7.05591 4.44133 7.95938C3.07957 9.32833 2.42656 11.7507 2.44515 15.365C2.46669 19.6125 6.18493 25.0008 10.3327 25.0008C10.6943 25.0008 11.0575 24.9603 11.4119 24.8805C12.1215 24.7204 12.8759 24.7204 13.5868 24.8805C13.9411 24.9603 14.304 25.0008 14.666 25.0008C14.6664 25.0008 14.666 25.0008 14.6664 25.0008C18.8138 25.0008 22.532 19.6125 22.5535 15.3654C22.5725 11.7503 21.9195 9.32791 20.5578 7.95896ZM8.35893 9.37183C6.72896 9.37183 5.40225 10.8878 5.40225 12.7509C5.40225 12.9841 5.21345 13.1733 4.97987 13.1733C4.74629 13.1733 4.55749 12.9841 4.55749 12.7509C4.55749 10.4219 6.26265 8.52707 8.35893 8.52707C8.59251 8.52707 8.78132 8.71629 8.78132 8.94945C8.78132 9.1826 8.59251 9.37183 8.35893 9.37183ZM14.3116 9.24807C13.8094 9.75029 13.1416 10.0274 12.4324 10.0274C11.7232 10.0274 11.055 9.75071 10.5528 9.24807C10.3876 9.08335 10.3876 8.81598 10.5528 8.65083C10.7179 8.48567 10.9849 8.48567 11.15 8.65083C11.493 8.9938 11.9488 9.1826 12.4324 9.1826C12.916 9.1826 13.3718 8.9938 13.7143 8.65083C13.8795 8.48567 14.1464 8.48567 14.3116 8.65083C14.4763 8.81555 14.4763 9.08292 14.3116 9.24807Z" fill="#041C47"/>
</g>
<defs>
<clipPath id="clip0">
<rect width="25" height="25" fill="white"/>
</clipPath>
</defs>
</svg>
