<svg width="25" height="25" viewBox="0 0 25 25" fill="none" xmlns="http://www.w3.org/2000/svg">
<g clip-path="url(#clip0)">
<path d="M2.01018 12.5524C2.26456 12.9721 2.52753 13.406 2.76894 13.8558C3.49853 15.1535 3.97297 16.5787 4.16633 18.0548C4.30134 19.56 4.55362 21.0521 4.9207 22.5182C5.24164 23.7178 5.66688 24.9916 6.64875 24.9916C7.09516 24.9916 8.14263 23.5254 8.91626 17.9763C9.13937 16.4092 9.81957 15.5215 10.9332 15.3184C10.5144 13.5928 10.6252 11.5975 12.0043 10.275C13.6195 8.72393 16.473 8.65928 18.3101 10.0643C19.3471 9.30515 20.6299 8.96019 21.9079 9.09654C22.7608 6.03079 22.2818 3.26443 20.5938 1.64566C18.4014 -0.461483 14.3641 -0.528797 11.8485 1.40691C12.6283 2.08615 14.5083 3.56802 16.0752 3.56802C16.3218 3.56802 16.5216 3.76786 16.5216 4.01423C16.5216 4.2608 16.3218 4.46064 16.0752 4.46064C13.7173 4.46064 11.0371 1.88745 10.863 1.71793C8.39358 -0.534709 4.04409 -0.570368 1.73616 1.6447C-0.571783 3.85977 -0.252756 7.57292 0.820265 10.3097C1.15207 11.09 1.55004 11.8404 2.01018 12.5524ZM4.91708 1.33635C5.16364 1.33635 5.36349 1.5362 5.36349 1.78257C5.36349 2.02914 5.16364 2.22898 4.91708 2.22898C4.67052 2.22898 4.47067 2.02914 4.47067 1.78257C4.47067 1.5362 4.67052 1.33635 4.91708 1.33635ZM3.16177 2.16167C3.38201 2.06251 3.64135 2.1569 3.74643 2.37448C3.85169 2.59206 3.76454 2.85388 3.55001 2.96505C3.44323 3.01806 1.11526 4.22266 2.11201 7.87459C2.15396 8.02848 2.11067 8.19304 1.99836 8.30631C1.88623 8.41978 1.72204 8.46459 1.56778 8.42397C1.41351 8.38335 1.29261 8.2636 1.25046 8.10971C0.0521598 3.71218 3.13183 2.17635 3.16177 2.16167Z" fill="#041C47"/>
<path d="M19.0057 10.6596C19.5934 11.1448 20.5632 11.8067 21.3292 11.8067C21.5756 11.8067 21.7755 12.0065 21.7755 12.2531C21.7755 12.4996 21.5756 12.6993 21.3292 12.6993C19.8201 12.6993 18.1365 11.0925 18.0053 10.9663C16.5477 9.63716 13.9827 9.61428 12.6236 10.919C11.2645 12.2235 11.4608 14.4325 12.1026 16.0652C12.3036 16.5364 12.5445 16.9898 12.8227 17.4202C12.9838 17.6857 13.1448 17.9523 13.2922 18.229C13.7517 19.0466 14.0502 19.945 14.1714 20.8752C14.2534 21.7934 14.4068 22.7035 14.6303 23.5979C14.811 24.2731 15.0448 24.9916 15.5282 24.9916C15.696 24.9386 16.303 24.0544 16.7534 20.8222C16.9096 19.7179 17.4153 19.1109 18.2557 19.0171C18.273 19.0178 18.2904 19.0196 18.3075 19.022C18.3238 19.0196 18.3402 19.0182 18.3566 19.0177C18.4157 19.0241 18.4744 19.0339 18.5324 19.0466C19.2694 19.1971 19.7166 19.7941 19.8644 20.8222C20.3151 24.0544 20.9194 24.9377 21.0966 24.9916C21.568 24.9916 21.8031 24.2718 21.9866 23.5973C22.211 22.7031 22.3649 21.793 22.4467 20.8748C22.5695 19.9448 22.8683 19.0466 23.3273 18.2284C23.4747 17.95 23.6372 17.6813 23.7997 17.413C24.076 16.9849 24.3151 16.5339 24.5146 16.0652C25.1278 14.5078 25.3591 12.2268 23.9924 10.922C23.4844 10.4466 22.8456 10.1345 22.1584 10.0258C21.0651 9.8309 19.9385 10.0574 19.0057 10.6596ZM14.2508 12.1821C14.1892 12.2187 12.935 12.9985 13.6491 15.0534C13.7022 15.204 13.6703 15.3716 13.566 15.4925C13.4617 15.6134 13.3008 15.6695 13.1438 15.6394C12.9869 15.6092 12.8582 15.4975 12.8061 15.3465C12.0317 13.1184 13.1225 11.7956 13.8072 11.4073C14.0212 11.2847 14.2939 11.3589 14.4165 11.5729C14.5389 11.7868 14.4647 12.0595 14.2508 12.1821ZM15.1823 11.6019C14.9359 11.6019 14.7361 11.402 14.7361 11.1554C14.7361 10.9091 14.9359 10.7092 15.1823 10.7092C15.4289 10.7092 15.6287 10.9091 15.6287 11.1554C15.6287 11.402 15.4289 11.6019 15.1823 11.6019Z" fill="#041C47"/>
</g>
<defs>
<clipPath id="clip0">
<rect width="25" height="25" fill="white"/>
</clipPath>
</defs>
</svg>
