<svg width="25" height="25" viewBox="0 0 25 25" fill="none" xmlns="http://www.w3.org/2000/svg">
<path d="M3.5 7.5C3.66667 5.66667 5.1 2 9.5 2" stroke="#041C47" stroke-width="1.2"/>
<path d="M3 8.5V8M3 8V9L3.5 8.5L3 8Z" stroke="#041C47"/>
<path d="M15.7456 3.54255L15.4298 1.97369H14.3947L14.0789 3.54255C14.0461 3.70552 13.924 3.83595 13.7635 3.8794C13.4012 3.97709 13.0531 4.12158 12.728 4.30922C12.5832 4.39324 12.4031 4.38745 12.264 4.29431L10.9355 3.40396L10.2043 4.13904L11.0921 5.46624C11.1852 5.60539 11.191 5.78543 11.107 5.93027C10.9193 6.25531 10.7748 6.60342 10.6771 6.9658C10.6337 7.12626 10.5033 7.24836 10.3403 7.28115L8.77188 7.5965V8.63159L10.3407 8.94694C10.5037 8.97973 10.6341 9.10183 10.6776 9.26229C10.7753 9.62467 10.9198 9.97277 11.1074 10.2978C11.1914 10.4427 11.1856 10.6227 11.0925 10.7619L10.2021 12.0904L10.9372 12.8215L12.2644 11.9338C12.4036 11.8406 12.5836 11.8349 12.7285 11.9189C13.0535 12.1065 13.4016 12.251 13.764 12.3487C13.9244 12.3921 14.0465 12.5226 14.0793 12.6855L14.3947 14.2544H15.4298L15.7451 12.6855C15.7779 12.5226 15.9 12.3921 16.0605 12.3487C16.4228 12.251 16.771 12.1065 17.096 11.9189C17.2408 11.8349 17.4209 11.8406 17.56 11.9338L18.8885 12.8241L19.6197 12.089L18.732 10.7619C18.6388 10.6227 18.633 10.4427 18.717 10.2978C18.9047 9.97277 19.0492 9.62467 19.1469 9.26229C19.1903 9.10183 19.3207 8.97973 19.4837 8.94694L21.0526 8.63159V7.59606L19.4837 7.28071C19.3207 7.24792 19.1903 7.12582 19.1469 6.96536C19.0492 6.60298 18.9047 6.25488 18.717 5.92983C18.633 5.78499 18.6388 5.60495 18.732 5.4658L19.6223 4.13729L18.8872 3.40659L17.56 4.29431C17.4209 4.38745 17.2408 4.39324 17.096 4.30922C16.771 4.12158 16.4228 3.97709 16.0605 3.8794C15.9002 3.83581 15.7783 3.70541 15.7456 3.54255ZM17.9824 8.11404C17.9824 9.80966 16.6078 11.1842 14.9122 11.1842C13.2166 11.1842 11.8421 9.80966 11.8421 8.11404C11.8421 6.41843 13.2166 5.04387 14.9122 5.04387C16.607 5.0458 17.9805 6.41923 17.9824 8.11404Z" fill="#041C47"/>
<path d="M19.6087 5.7342C19.7298 5.97219 19.8324 6.21911 19.9158 6.4728L20.5815 6.60438C21.2665 6.26191 21.6481 5.51294 21.5227 4.75751C21.3972 4.00208 20.7939 3.41669 20.0351 3.31403L20.2399 3.51885C20.5344 3.81252 20.5822 4.27266 20.3543 4.6206L19.6087 5.7342Z" fill="#041C47"/>
<path d="M12.7193 8.114C12.7193 9.32515 13.7011 10.307 14.9123 10.307C16.1234 10.307 17.1052 9.32515 17.1052 8.114C17.1052 6.90285 16.1234 5.92102 14.9123 5.92102C13.7017 5.92247 12.7207 6.90345 12.7193 8.114ZM15.3509 8.114C15.3509 8.35623 15.1545 8.5526 14.9123 8.5526C14.67 8.5526 14.4737 8.35623 14.4737 8.114C14.4737 7.87177 14.67 7.67541 14.9123 7.67541C15.1545 7.67541 15.3509 7.87177 15.3509 8.114Z" fill="#041C47"/>
<path d="M0.278921 15.0153C0.393401 15.0952 0.51428 15.1655 0.640324 15.2254C1.01445 15.4167 1.52673 15.6789 1.63243 16.2136C1.69523 16.545 1.65434 16.8878 1.51532 17.1952C1.43901 17.3579 1.36006 17.4982 1.2912 17.6193C1.27015 17.657 1.24734 17.6991 1.22497 17.7373C1.40699 17.8838 1.65524 18.0697 1.7605 18.1469C1.85624 18.2174 1.91927 18.3237 1.93515 18.4416C1.95102 18.5594 1.91838 18.6786 1.84471 18.7719C1.7795 18.8566 1.7228 18.9476 1.67541 19.0434C1.70655 19.0618 1.73813 19.0798 1.76971 19.0978C2.1561 19.2646 2.45105 19.5909 2.57804 19.9921C2.64309 20.3053 2.62877 20.6297 2.53638 20.936C2.51576 21.0259 2.49515 21.1158 2.48243 21.2057C2.45893 21.4696 2.49599 21.7354 2.59076 21.9829C2.68805 22.3873 3.08561 22.6442 3.49427 22.5667C4.77243 22.2593 6.03182 21.8785 7.2662 21.4263H7.26883C7.72541 21.271 8.13945 21.1263 8.46532 21.0127C8.76927 20.9061 8.99866 20.8263 9.11796 20.7882C10.9412 20.207 11.3109 19.5504 11.3004 19.1017C11.2948 18.8597 11.4864 18.6588 11.7285 18.6531C11.8452 18.6487 11.9587 18.6917 12.0432 18.7723C12.1278 18.8529 12.1761 18.9643 12.1772 19.0811C12.203 20.1697 11.2636 21.025 9.3855 21.625C9.27059 21.6618 9.04866 21.739 8.7548 21.8443L8.36006 21.982C9.08306 22.7834 9.61072 23.7413 9.90173 24.7807L19.85 24.7531L19.8206 24.7092C19.6944 24.5271 19.5808 24.3366 19.4807 24.139C19.2625 23.6958 19.0805 23.2357 18.9364 22.7632C18.6703 21.8654 18.4856 20.9454 18.3846 20.0145C18.2117 18.5472 18.4336 17.0603 19.0276 15.7075C19.3778 14.9754 19.8109 14.2859 20.3184 13.6526C20.5728 13.3096 20.8359 12.9553 21.064 12.5952C21.6715 11.657 21.998 10.5646 22.0048 9.44692C22.0074 9.3478 22.0048 9.24912 22.0026 9.15043L21.8302 9.03508C21.709 9.27201 21.4863 9.44074 21.2254 9.49342L19.9149 9.75657C19.8316 10.0103 19.7289 10.2572 19.6079 10.4952L20.3509 11.6022C20.584 11.9526 20.5354 12.4192 20.2351 12.714L19.5074 13.4417C19.2138 13.7362 18.7536 13.784 18.4057 13.5561L17.2921 12.8105C17.0541 12.9316 16.8072 13.0342 16.5535 13.1175L16.2903 14.4298C16.2069 14.8386 15.847 15.1321 15.4298 15.1316H14.3947C13.9765 15.1318 13.6164 14.8368 13.5342 14.4268L13.271 13.1162C13.0173 13.0329 12.7704 12.9303 12.5324 12.8092L11.4241 13.5526C11.0736 13.7845 10.6081 13.7362 10.3127 13.4373L9.58462 12.7092C9.29009 12.4155 9.24228 11.9554 9.47015 11.6075L10.2158 10.4939C10.0947 10.2559 9.99205 10.0089 9.90874 9.75526L8.59646 9.4921C8.18766 9.40865 7.89421 9.04881 7.89471 8.63157V7.59649C7.8945 7.17831 8.18951 6.81813 8.59953 6.73596L9.91006 6.4728C9.99337 6.21912 10.096 5.97219 10.2171 5.73421L9.47366 4.62587C9.24053 4.27547 9.28912 3.80888 9.58945 3.51403L10.3171 2.7864C10.6107 2.49187 11.0709 2.44406 11.4188 2.67192L12.5324 3.41754C12.7704 3.29647 13.0173 3.19383 13.271 3.11052L13.5342 1.79824C13.6176 1.38944 13.9775 1.09598 14.3947 1.09649H15.4298C15.4879 1.09703 15.5457 1.1032 15.6026 1.11491L15.9623 0.755257C14.8063 0.338075 13.5777 0.159915 12.3509 0.231573C10.9669 0.328892 9.59191 0.527079 8.23682 0.824556C6.46664 1.17543 5.14427 1.80482 4.30524 2.69166C3.61277 3.43403 3.07749 4.30871 2.73155 5.26315C2.56917 5.73787 2.43732 6.22248 2.33682 6.71403C2.23008 7.12384 2.08317 7.52211 1.89822 7.90306C1.81576 8.08771 1.73287 8.27192 1.66138 8.45964C1.61859 8.55799 1.59449 8.66344 1.59032 8.77061C1.60918 8.90219 1.77717 9.05482 1.95524 9.21754C2.31827 9.47264 2.55284 9.87265 2.59822 10.314C2.59016 10.5224 2.5321 10.7258 2.42892 10.907C1.88003 12.0629 1.20738 13.1558 0.42278 14.1667C0.0890083 14.5732 0.0192715 14.7342 0.0175171 14.8009C0.0979903 14.8801 0.185483 14.9519 0.278921 15.0153ZM3.27673 6.46929C3.34566 6.16458 3.43206 5.86408 3.5355 5.56929C3.84039 4.72509 4.31304 3.95136 4.92497 3.29473C5.63725 2.54385 6.80524 1.99999 8.3969 1.68333C8.63453 1.63621 8.86536 1.79066 8.91247 2.02828C8.95959 2.26591 8.80514 2.49674 8.56752 2.54385C7.15787 2.82412 6.1469 3.27982 5.56225 3.89736C5.03223 4.46747 4.62287 5.1388 4.35875 5.87105C4.26688 6.13473 4.19015 6.40344 4.12892 6.67587C4.09234 6.8287 3.97678 6.95028 3.82601 6.99458C3.67524 7.03888 3.51228 6.99913 3.39884 6.89037C3.28541 6.78162 3.23882 6.62048 3.27673 6.46798V6.46929ZM3.07015 8.11403C3.31238 8.11403 3.50875 8.3104 3.50875 8.55263C3.50875 8.79486 3.31238 8.99122 3.07015 8.99122C2.82792 8.99122 2.63155 8.79486 2.63155 8.55263C2.63155 8.3104 2.82792 8.11403 3.07015 8.11403Z" fill="#041C47"/>
<path d="M16.5535 3.11404C16.8072 3.19734 17.0541 3.29998 17.2921 3.42105L18.4004 2.67544C18.5818 2.55716 18.8001 2.50913 19.0144 2.54035C19.266 2.45725 19.5289 2.41404 19.7938 2.41228C20.8666 2.40867 21.8336 3.05809 22.2362 4.05247C22.6388 5.04684 22.3959 6.18611 21.6228 6.92982C21.8173 7.09671 21.9294 7.34016 21.9298 7.59649V8.04474L22.9048 8.69868L23.3916 8.21184L22.7193 7.20921C22.625 7.06861 22.62 6.8863 22.7065 6.74079C22.8543 6.48972 22.9672 6.21969 23.0421 5.93816C23.0855 5.77729 23.2164 5.65493 23.3798 5.62237L24.564 5.38684V4.70088L23.382 4.46535C23.2186 4.43279 23.0877 4.31043 23.0443 4.14956C22.9694 3.86803 22.8565 3.598 22.7087 3.34693C22.6216 3.20184 22.6257 3.01954 22.7193 2.87851L23.3921 1.87588L22.9052 1.38904L21.9022 2.0614C21.7616 2.15569 21.5792 2.16064 21.4337 2.07412C21.1827 1.92636 20.9126 1.81348 20.6311 1.7386C20.4702 1.69515 20.3479 1.5643 20.3153 1.40088L20.0798 0.219299H19.3938L19.1583 1.40351C19.1257 1.56693 19.0034 1.69778 18.8425 1.74123C18.561 1.81611 18.2909 1.92899 18.0399 2.07676C17.8939 2.16248 17.7115 2.15651 17.5715 2.0614L16.5688 1.38904L16.2618 1.69605C16.2742 1.72984 16.2843 1.76442 16.2921 1.79956L16.5535 3.11404Z" fill="#041C47"/>
</svg>
