<svg width="31" height="46" viewBox="0 0 31 46" fill="none" xmlns="http://www.w3.org/2000/svg">
<path d="M12.1475 40.6855C12.0758 41.444 11.7959 42.0365 11.3076 42.4629C10.8193 42.8861 10.1699 43.0977 9.35938 43.0977C8.79297 43.0977 8.29329 42.9642 7.86035 42.6973C7.43066 42.4271 7.09863 42.0446 6.86426 41.5498C6.62988 41.055 6.50781 40.4805 6.49805 39.8262V39.1621C6.49805 38.4915 6.61686 37.9007 6.85449 37.3896C7.09212 36.8786 7.43229 36.4847 7.875 36.208C8.32096 35.9313 8.83529 35.793 9.41797 35.793C10.2025 35.793 10.834 36.0062 11.3125 36.4326C11.791 36.859 12.0693 37.4613 12.1475 38.2393H10.917C10.8584 37.7282 10.7087 37.3604 10.4678 37.1357C10.2301 36.9079 9.88021 36.7939 9.41797 36.7939C8.88086 36.7939 8.46745 36.9909 8.17773 37.3848C7.89128 37.7754 7.74479 38.3499 7.73828 39.1084V39.7383C7.73828 40.5065 7.875 41.0924 8.14844 41.4961C8.42513 41.8997 8.82878 42.1016 9.35938 42.1016C9.8444 42.1016 10.209 41.9925 10.4531 41.7744C10.6973 41.5563 10.8519 41.1934 10.917 40.6855H12.1475ZM16.9717 41.1689C16.9717 40.8564 16.861 40.6156 16.6396 40.4463C16.4215 40.277 16.026 40.1061 15.4531 39.9336C14.8802 39.7611 14.4245 39.569 14.0859 39.3574C13.4382 38.9505 13.1143 38.4199 13.1143 37.7656C13.1143 37.1927 13.347 36.7207 13.8125 36.3496C14.2812 35.9785 14.8883 35.793 15.6338 35.793C16.1286 35.793 16.5697 35.8841 16.957 36.0664C17.3444 36.2487 17.6488 36.5091 17.8701 36.8477C18.0915 37.1829 18.2021 37.5557 18.2021 37.9658H16.9717C16.9717 37.5947 16.8545 37.305 16.6201 37.0967C16.389 36.8851 16.057 36.7793 15.624 36.7793C15.2204 36.7793 14.9062 36.8656 14.6816 37.0381C14.4603 37.2106 14.3496 37.4515 14.3496 37.7607C14.3496 38.0212 14.4701 38.2393 14.7109 38.415C14.9518 38.5876 15.349 38.7568 15.9023 38.9229C16.4557 39.0856 16.9001 39.2728 17.2354 39.4844C17.5706 39.6927 17.8164 39.9336 17.9727 40.207C18.1289 40.4772 18.207 40.7946 18.207 41.1592C18.207 41.7516 17.9792 42.2236 17.5234 42.5752C17.071 42.9235 16.4557 43.0977 15.6777 43.0977C15.1634 43.0977 14.6898 43.0033 14.2568 42.8145C13.8271 42.6224 13.4919 42.3587 13.251 42.0234C13.0133 41.6882 12.8945 41.2975 12.8945 40.8516H14.1299C14.1299 41.2552 14.2633 41.5677 14.5303 41.7891C14.7972 42.0104 15.1797 42.1211 15.6777 42.1211C16.1074 42.1211 16.4297 42.0348 16.6445 41.8623C16.8626 41.6865 16.9717 41.4554 16.9717 41.1689ZM23.0068 41.1689C23.0068 40.8564 22.8962 40.6156 22.6748 40.4463C22.4567 40.277 22.0612 40.1061 21.4883 39.9336C20.9154 39.7611 20.4596 39.569 20.1211 39.3574C19.4733 38.9505 19.1494 38.4199 19.1494 37.7656C19.1494 37.1927 19.3822 36.7207 19.8477 36.3496C20.3164 35.9785 20.9235 35.793 21.6689 35.793C22.1637 35.793 22.6048 35.8841 22.9922 36.0664C23.3796 36.2487 23.6839 36.5091 23.9053 36.8477C24.1266 37.1829 24.2373 37.5557 24.2373 37.9658H23.0068C23.0068 37.5947 22.8896 37.305 22.6553 37.0967C22.4242 36.8851 22.0921 36.7793 21.6592 36.7793C21.2555 36.7793 20.9414 36.8656 20.7168 37.0381C20.4954 37.2106 20.3848 37.4515 20.3848 37.7607C20.3848 38.0212 20.5052 38.2393 20.7461 38.415C20.987 38.5876 21.3841 38.7568 21.9375 38.9229C22.4909 39.0856 22.9352 39.2728 23.2705 39.4844C23.6058 39.6927 23.8516 39.9336 24.0078 40.207C24.1641 40.4772 24.2422 40.7946 24.2422 41.1592C24.2422 41.7516 24.0143 42.2236 23.5586 42.5752C23.1061 42.9235 22.4909 43.0977 21.7129 43.0977C21.1986 43.0977 20.7249 43.0033 20.292 42.8145C19.8623 42.6224 19.527 42.3587 19.2861 42.0234C19.0485 41.6882 18.9297 41.2975 18.9297 40.8516H20.165C20.165 41.2552 20.2985 41.5677 20.5654 41.7891C20.8324 42.0104 21.2148 42.1211 21.7129 42.1211C22.1426 42.1211 22.4648 42.0348 22.6797 41.8623C22.8978 41.6865 23.0068 41.4554 23.0068 41.1689Z" fill="#36496C"/>
<path d="M1.9375 0L4.40781 27.9L15.5 31L26.5883 27.9019L29.0625 0H1.9375Z" fill="#FFBE24"/>
<path d="M23.7809 9.12368L23.4689 12.6286L22.5273 23.1357L15.5 25.079L15.4942 25.0809L8.47074 23.1357L7.98056 17.6409H11.4216L11.6773 20.491L15.4961 21.5217L15.4981 21.5198L19.3227 20.4891L19.8439 15.7402L7.81587 15.7732L7.47487 12.5259L20.1326 12.3767L20.3883 8.90087L7.13581 8.93768L6.91299 5.70399H15.5H24.087L23.7809 9.12368Z" fill="#FAFAFA"/>
</svg>
