<svg width="31" height="31" viewBox="0 0 31 31" fill="none" xmlns="http://www.w3.org/2000/svg">
<path d="M9.48636 22.0924L0 16.9188V14.0534L9.48636 8.90912V12.2748L2.87611 15.4502L9.48636 18.7453V22.0924Z" fill="#FFBE24"/>
<mask id="path-3-inside-1" fill="white">
<path d="M11.1067 23.9029L17.3977 7.0972H19.3852L13.0795 23.9029H11.1067Z"/>
</mask>
<path d="M11.1067 23.9029L17.3977 7.0972H19.3852L13.0795 23.9029H11.1067Z" fill="#FFBE24"/>
<path d="M11.1067 23.9029L9.23359 23.2017L8.22244 25.9029H11.1067V23.9029ZM17.3977 7.0972V5.0972H16.0108L15.5246 6.39604L17.3977 7.0972ZM19.3852 7.0972L21.2577 7.79979L22.2718 5.0972H19.3852V7.0972ZM13.0795 23.9029V25.9029H14.4653L14.9521 24.6055L13.0795 23.9029ZM12.9797 24.6041L19.2708 7.79836L15.5246 6.39604L9.23359 23.2017L12.9797 24.6041ZM17.3977 9.0972H19.3852V5.0972H17.3977V9.0972ZM17.5127 6.39461L11.207 23.2003L14.9521 24.6055L21.2577 7.79979L17.5127 6.39461ZM13.0795 21.9029H11.1067V25.9029H13.0795V21.9029Z" fill="#FFBE24" mask="url(#path-3-inside-1)"/>
<path d="M21.5136 22.0924V18.7453L28.1225 15.4768L21.5136 12.2335V8.90775L30.9999 14.0587V16.9068L21.5136 22.0924Z" fill="#FFBE24"/>
</svg>
