<svg width="33" height="33" viewBox="0 0 33 33" fill="none" xmlns="http://www.w3.org/2000/svg">
<g clip-path="url(#clip0)">
<path d="M32.3549 8.27288L16.8217 2.79237C16.6136 2.71889 16.3865 2.71889 16.1784 2.79237L0.645177 8.27288C0.258973 8.40914 0.000516398 8.77394 7.72601e-07 9.18348C-0.000514852 9.59301 0.257104 9.9584 0.642985 10.0956L16.1762 15.6177C16.2809 15.655 16.3905 15.6736 16.5 15.6736C16.6096 15.6736 16.7191 15.655 16.8238 15.6177L32.357 10.0956C32.7429 9.9584 33.0005 9.59301 33 9.18348C32.9995 8.77394 32.741 8.40914 32.3549 8.27288Z" fill="#FFBE24"/>
<path d="M30.6779 21.1777V12.7446L28.7443 13.432V21.1777C28.1619 21.5129 27.7695 22.141 27.7695 22.8613C27.7695 23.5815 28.1619 24.2096 28.7443 24.5448V29.2961C28.7443 29.83 29.1772 30.2629 29.7111 30.2629C30.2451 30.2629 30.6779 29.83 30.6779 29.2961V24.5449C31.2603 24.2098 31.6528 23.5815 31.6528 22.8613C31.6528 22.1411 31.2604 21.5129 30.6779 21.1777Z" fill="#FFBE24"/>
<path d="M16.5 17.6072C16.1681 17.6072 15.8413 17.5508 15.5285 17.4396L6.7962 14.3352V18.5896C6.7962 19.6305 7.88205 20.5107 10.0236 21.2058C11.8902 21.8116 14.1903 22.1453 16.5 22.1453C18.8097 22.1453 21.1098 21.8116 22.9764 21.2058C25.118 20.5107 26.2038 19.6305 26.2038 18.5896V14.3352L17.4716 17.4396C17.1587 17.5508 16.8319 17.6072 16.5 17.6072Z" fill="#FFBE24"/>
</g>
<defs>
<clipPath id="clip0">
<rect y="6.10352e-05" width="33" height="33" fill="white"/>
</clipPath>
</defs>
</svg>
