<svg width="31" height="46" viewBox="0 0 31 46" fill="none" xmlns="http://www.w3.org/2000/svg">
<path d="M1.9375 0L4.40781 27.9L15.5 31L26.5883 27.9019L29.0625 0H1.9375Z" fill="#FFBE24"/>
<path d="M23.7053 9.12368H15.5H10.7047L11.0147 12.6286H15.5H23.3953L22.4634 23.1376L15.5 25.0809L15.4942 25.0829L8.5347 23.1376L8.04838 17.6409H11.4584L11.7122 20.4929L15.4961 21.5217L15.5 21.5198L19.2878 20.491L19.6831 16.0522H15.5H7.90888L6.99051 5.70399H15.5H24.0076L23.7053 9.12368Z" fill="#FAFAFA"/>
<path d="M8.36719 43H7.13672V39.8408H3.95801V43H2.72266V35.8906H3.95801V38.8496H7.13672V35.8906H8.36719V43ZM14.8223 36.8867H12.6055V43H11.3799V36.8867H9.18262V35.8906H14.8223V36.8867ZM17.3613 35.8906L19.4121 41.3398L21.458 35.8906H23.0547V43H21.8242V40.6562L21.9463 37.5215L19.8467 43H18.9629L16.8682 37.5264L16.9902 40.6562V43H15.7598V35.8906H17.3613ZM25.7549 42.0137H28.9824V43H24.5195V35.8906H25.7549V42.0137Z" fill="#36496C"/>
</svg>
