<svg width="47" height="45" viewBox="0 0 47 45" fill="none" xmlns="http://www.w3.org/2000/svg">
<path d="M39 0H8V31H39V0Z" fill="#FFBE24"/>
<path d="M28.8241 24.2189C29.4486 25.2384 30.2609 25.9878 31.6978 25.9878C32.9048 25.9878 33.6759 25.3846 33.6759 24.551C33.6759 23.5521 32.8836 23.1983 31.5551 22.6172L30.8268 22.3047C28.7247 21.4092 27.3282 20.2873 27.3282 17.9155C27.3282 15.7308 28.9929 14.0676 31.5944 14.0676C33.4466 14.0676 34.7781 14.7122 35.7376 16.4L33.4692 17.8565C32.9698 16.9609 32.4309 16.6081 31.5944 16.6081C30.7412 16.6081 30.2004 17.1494 30.2004 17.8565C30.2004 18.7304 30.7417 19.0842 31.9915 19.6255L32.7198 19.9374C35.1949 20.9988 36.5923 22.0809 36.5923 24.5136C36.5923 27.1363 34.5321 28.5731 31.7652 28.5731C29.0598 28.5731 27.312 27.2839 26.4568 25.5942L28.8241 24.2189ZM18.5336 24.4713C18.9912 25.2832 19.4075 25.9696 20.4084 25.9696C21.3654 25.9696 21.9692 25.5952 21.9692 24.1392V14.2339H24.8822V24.1785C24.8822 27.1949 23.1137 28.5677 20.5324 28.5677C18.2 28.5677 16.8493 27.3607 16.1624 25.9069L18.5336 24.4713Z" fill="white"/>
<path d="M2.90625 37.3125H3.89062V41.3008C3.89062 41.8451 3.72005 42.2773 3.37891 42.5977C3.04036 42.918 2.59245 43.0781 2.03516 43.0781C1.44141 43.0781 0.983073 42.9284 0.660156 42.6289C0.33724 42.3294 0.175781 41.9128 0.175781 41.3789H1.16016C1.16016 41.681 1.23438 41.9089 1.38281 42.0625C1.53385 42.2135 1.7513 42.2891 2.03516 42.2891C2.30078 42.2891 2.51172 42.2018 2.66797 42.0273C2.82682 41.8503 2.90625 41.6068 2.90625 41.2969V37.3125ZM8.12109 41.6758H5.91797L5.45703 43H4.42969L6.57812 37.3125H7.46484L9.61719 43H8.58594L8.12109 41.6758ZM6.19531 40.8789H7.84375L7.01953 38.5195L6.19531 40.8789ZM11.9648 41.7617L13.4102 37.3125H14.4961L12.4492 43H11.4922L9.45312 37.3125H10.5352L11.9648 41.7617ZM18.0273 41.6758H15.8242L15.3633 43H14.3359L16.4844 37.3125H17.3711L19.5234 43H18.4922L18.0273 41.6758ZM16.1016 40.8789H17.75L16.9258 38.5195L16.1016 40.8789ZM23.1445 41.5352C23.1445 41.2852 23.056 41.0924 22.8789 40.957C22.7044 40.8216 22.388 40.6849 21.9297 40.5469C21.4714 40.4089 21.1068 40.2552 20.8359 40.0859C20.3177 39.7604 20.0586 39.3359 20.0586 38.8125C20.0586 38.3542 20.2448 37.9766 20.6172 37.6797C20.9922 37.3828 21.4779 37.2344 22.0742 37.2344C22.4701 37.2344 22.8229 37.3073 23.1328 37.4531C23.4427 37.599 23.6862 37.8073 23.8633 38.0781C24.0404 38.3464 24.1289 38.6445 24.1289 38.9727H23.1445C23.1445 38.6758 23.0508 38.444 22.8633 38.2773C22.6784 38.1081 22.4128 38.0234 22.0664 38.0234C21.7435 38.0234 21.4922 38.0924 21.3125 38.2305C21.1354 38.3685 21.0469 38.5612 21.0469 38.8086C21.0469 39.0169 21.1432 39.1914 21.3359 39.332C21.5286 39.4701 21.8464 39.6055 22.2891 39.7383C22.7318 39.8685 23.0872 40.0182 23.3555 40.1875C23.6237 40.3542 23.8203 40.5469 23.9453 40.7656C24.0703 40.9818 24.1328 41.2357 24.1328 41.5273C24.1328 42.0013 23.9505 42.3789 23.5859 42.6602C23.224 42.9388 22.7318 43.0781 22.1094 43.0781C21.6979 43.0781 21.319 43.0026 20.9727 42.8516C20.6289 42.6979 20.3607 42.487 20.168 42.2188C19.9779 41.9505 19.8828 41.638 19.8828 41.2812H20.8711C20.8711 41.6042 20.9779 41.8542 21.1914 42.0312C21.4049 42.2083 21.7109 42.2969 22.1094 42.2969C22.4531 42.2969 22.7109 42.2279 22.8828 42.0898C23.0573 41.9492 23.1445 41.7643 23.1445 41.5352ZM29.3398 41.1484C29.2826 41.7552 29.0586 42.2292 28.668 42.5703C28.2773 42.9089 27.7578 43.0781 27.1094 43.0781C26.6562 43.0781 26.2565 42.9714 25.9102 42.7578C25.5664 42.5417 25.3008 42.2357 25.1133 41.8398C24.9258 41.444 24.8281 40.9844 24.8203 40.4609V39.9297C24.8203 39.3932 24.9154 38.9206 25.1055 38.5117C25.2956 38.1029 25.5677 37.7878 25.9219 37.5664C26.2786 37.3451 26.6901 37.2344 27.1562 37.2344C27.7839 37.2344 28.2891 37.4049 28.6719 37.7461C29.0547 38.0872 29.2773 38.569 29.3398 39.1914H28.3555C28.3086 38.7826 28.1888 38.4883 27.9961 38.3086C27.806 38.1263 27.526 38.0352 27.1562 38.0352C26.7266 38.0352 26.3958 38.1927 26.1641 38.5078C25.9349 38.8203 25.8177 39.2799 25.8125 39.8867V40.3906C25.8125 41.0052 25.9219 41.474 26.1406 41.7969C26.362 42.1198 26.6849 42.2812 27.1094 42.2812C27.4974 42.2812 27.7891 42.194 27.9844 42.0195C28.1797 41.8451 28.3034 41.5547 28.3555 41.1484H29.3398ZM32.3164 40.8086H31.2148V43H30.2266V37.3125H32.2266C32.8828 37.3125 33.3893 37.4596 33.7461 37.7539C34.1029 38.0482 34.2812 38.474 34.2812 39.0312C34.2812 39.4115 34.1888 39.7305 34.0039 39.9883C33.8216 40.2435 33.5664 40.4401 33.2383 40.5781L34.5156 42.9492V43H33.457L32.3164 40.8086ZM31.2148 40.0156H32.2305C32.5638 40.0156 32.8242 39.9323 33.0117 39.7656C33.1992 39.5964 33.293 39.3659 33.293 39.0742C33.293 38.7695 33.2057 38.5339 33.0312 38.3672C32.8594 38.2005 32.6016 38.1146 32.2578 38.1094H31.2148V40.0156ZM36.2617 43H35.2773V37.3125H36.2617V43ZM38.4648 40.8867V43H37.4766V37.3125H39.6523C40.2878 37.3125 40.7917 37.4779 41.1641 37.8086C41.5391 38.1393 41.7266 38.5768 41.7266 39.1211C41.7266 39.6784 41.543 40.112 41.1758 40.4219C40.8112 40.7318 40.2995 40.8867 39.6406 40.8867H38.4648ZM38.4648 40.0938H39.6523C40.0039 40.0938 40.2721 40.0117 40.457 39.8477C40.6419 39.681 40.7344 39.4414 40.7344 39.1289C40.7344 38.8216 40.6406 38.5768 40.4531 38.3945C40.2656 38.2096 40.0078 38.1146 39.6797 38.1094H38.4648V40.0938ZM46.7031 38.1094H44.9297V43H43.9492V38.1094H42.1914V37.3125H46.7031V38.1094Z" fill="#36496C"/>
</svg>
