<svg width="25" height="25" viewBox="0 0 25 25" fill="none" xmlns="http://www.w3.org/2000/svg">
<g clip-path="url(#clip0)">
<path d="M12.5222 19.8524C7.04007 19.8524 2.59597 15.4083 2.59597 9.92624C2.59597 4.44416 7.04007 6.10352e-05 12.5222 6.10352e-05C18.0042 6.10352e-05 22.4483 4.44416 22.4483 9.92624C22.4483 15.4083 18.0042 19.8524 12.5222 19.8524Z" fill="#FFBE24"/>
<path d="M20.5635 15.7333L23.9789 21.6536L19.9926 21.442L18.1816 25.0001L15.0222 19.5227C17.2859 18.9371 19.2298 17.5739 20.5635 15.7333Z" fill="#041C47"/>
<path d="M4.46113 15.7038C5.78494 17.5493 7.72884 18.9174 9.9877 19.5129L6.81841 25.0001L5.00739 21.442L1.02117 21.6536L4.46113 15.7038Z" fill="#041C47"/>
<path d="M12.5222 17.1211C8.54853 17.1211 5.32728 13.8999 5.32728 9.92624C5.32728 5.95262 8.54853 2.73136 12.5222 2.73136C16.4958 2.73136 19.717 5.95262 19.717 9.92624C19.717 13.8999 16.4958 17.1211 12.5222 17.1211Z" fill="#FFE5A8"/>
<path d="M7.59103 9.14868C7.36958 8.93214 7.49261 8.55321 7.79773 8.50892L10.6373 8.09553C10.7603 8.07585 10.8637 8.00203 10.9178 7.88884L12.1875 5.31502C12.3253 5.03451 12.7239 5.03451 12.8617 5.31502L14.1265 7.88884C14.1806 7.99711 14.2889 8.07585 14.407 8.09553L17.2465 8.50892C17.5517 8.55321 17.6747 8.93214 17.4532 9.14868L15.4011 11.1516C15.3125 11.2402 15.2731 11.3632 15.2928 11.4814L15.7751 14.3062C15.8292 14.6113 15.5044 14.8475 15.2288 14.6999L12.6895 13.3662C12.5812 13.3071 12.4483 13.3071 12.3401 13.3662L9.80068 14.6999C9.52509 14.8426 9.20521 14.6113 9.25442 14.3062L9.74163 11.4814C9.76131 11.3583 9.72194 11.2353 9.63336 11.1516L7.59103 9.14868Z" fill="white"/>
</g>
<defs>
<clipPath id="clip0">
<rect width="25" height="25" transform="matrix(-1 0 0 1 25 6.10352e-05)" fill="white"/>
</clipPath>
</defs>
</svg>
