<svg width="31" height="45" viewBox="0 0 31 45" fill="none" xmlns="http://www.w3.org/2000/svg">
<path d="M31 15.5C31 16.4376 30.9165 17.3556 30.7571 18.247C29.4608 25.4972 23.1229 31 15.5 31C9.75677 31 4.743 27.8766 2.06562 23.2355C1.41207 22.1037 0.898394 20.882 0.546617 19.5933C0.189814 18.2894 0 16.9165 0 15.5C0 6.93958 6.93958 0 15.5 0C22.5655 0 28.5263 4.7272 30.3933 11.1916C30.7881 12.5594 31 14.005 31 15.5Z" fill="#FFBE24"/>
<path d="M7.88158 10.7918H2.17316L0.546631 19.5933C0.898408 20.882 1.41209 22.1037 2.06563 23.2355H2.59517L3.22529 19.8267H6.36198C10.1813 19.8267 11.2081 16.3978 11.4542 14.7136C11.7009 13.0301 10.4692 10.7918 7.88158 10.7918ZM8.70974 14.9976C8.56994 15.9523 7.86451 17.8964 5.69959 17.8964H3.58209L4.52856 12.7739H6.68402C8.78506 12.7739 8.84954 14.043 8.70974 14.9976Z" fill="white"/>
<path d="M30.3933 11.1916C29.908 10.9411 29.3298 10.7918 28.6617 10.7918H22.9533L20.6536 23.2355H23.3752L24.0053 19.8267H27.142C28.8407 19.8267 29.987 19.1486 30.757 18.247C30.9165 17.3556 31 16.4376 31 15.5C31 14.005 30.7881 12.5594 30.3933 11.1916ZM29.4898 14.9976C29.35 15.9523 28.6446 17.8964 26.479 17.8964H24.3622L25.3087 12.7739H27.4641C29.5652 12.7739 29.6296 14.043 29.4898 14.9976Z" fill="white"/>
<path d="M18.7234 10.833C17.6157 10.833 16.1378 10.833 15.4177 10.833L16.0382 7.47561H13.3278L11.028 19.919H13.7385L15.061 12.7632C15.5496 12.7632 16.1987 12.7632 16.7932 12.7632C17.9431 12.7632 18.7234 13.0096 18.5591 14.0773C18.3948 15.1451 17.4503 19.8678 17.4503 19.8678H20.2018C20.2018 19.8678 21.2695 14.6112 21.4338 13.1327C21.5981 11.6543 20.2429 10.833 18.7234 10.833Z" fill="white"/>
<path d="M9.56641 40.8867V43H8.57812V37.3125H10.7539C11.3893 37.3125 11.8932 37.4779 12.2656 37.8086C12.6406 38.1393 12.8281 38.5768 12.8281 39.1211C12.8281 39.6784 12.6445 40.112 12.2773 40.4219C11.9128 40.7318 11.401 40.8867 10.7422 40.8867H9.56641ZM9.56641 40.0938H10.7539C11.1055 40.0938 11.3737 40.0117 11.5586 39.8477C11.7435 39.681 11.8359 39.4414 11.8359 39.1289C11.8359 38.8216 11.7422 38.5768 11.5547 38.3945C11.3672 38.2096 11.1094 38.1146 10.7812 38.1094H9.56641V40.0938ZM18.2109 43H17.2266V40.4727H14.6836V43H13.6953V37.3125H14.6836V39.6797H17.2266V37.3125H18.2109V43ZM20.3711 40.8867V43H19.3828V37.3125H21.5586C22.194 37.3125 22.6979 37.4779 23.0703 37.8086C23.4453 38.1393 23.6328 38.5768 23.6328 39.1211C23.6328 39.6784 23.4492 40.112 23.082 40.4219C22.7174 40.7318 22.2057 40.8867 21.5469 40.8867H20.3711ZM20.3711 40.0938H21.5586C21.9102 40.0938 22.1784 40.0117 22.3633 39.8477C22.5482 39.681 22.6406 39.4414 22.6406 39.1289C22.6406 38.8216 22.5469 38.5768 22.3594 38.3945C22.1719 38.2096 21.9141 38.1146 21.5859 38.1094H20.3711V40.0938Z" fill="#041C47"/>
</svg>
