<svg width="31" height="31" viewBox="0 0 31 31" fill="none" xmlns="http://www.w3.org/2000/svg">
<g clip-path="url(#clip0)">
<path d="M15.5 6.45833C16.2134 6.45833 16.7917 5.88004 16.7917 5.16667C16.7917 4.4533 16.2134 3.875 15.5 3.875C14.7866 3.875 14.2083 4.4533 14.2083 5.16667C14.2083 5.88004 14.7866 6.45833 15.5 6.45833Z" fill="#FFBE24"/>
<path d="M29.7083 12.9167C30.4217 12.9167 31 12.3384 31 11.625C31 10.9116 30.4217 10.3333 29.7083 10.3333C28.995 10.3333 28.4167 10.9116 28.4167 11.625C28.4167 12.3384 28.995 12.9167 29.7083 12.9167Z" fill="#FFBE24"/>
<path d="M1.29167 12.9167C2.00503 12.9167 2.58333 12.3384 2.58333 11.625C2.58333 10.9116 2.00503 10.3333 1.29167 10.3333C0.578299 10.3333 0 10.9116 0 11.625C0 12.3384 0.578299 12.9167 1.29167 12.9167Z" fill="#FFBE24"/>
<path d="M3.84352 25.8333H27.1573L29.6777 14.4885C29.7336 14.2368 29.7129 13.9741 29.6183 13.7343C29.5237 13.4945 29.3595 13.2884 29.1468 13.1427C28.9341 12.997 28.6826 12.9183 28.4248 12.9167C28.167 12.9151 27.9146 12.9906 27.7001 13.1337L21.1672 17.4885L16.6552 8.46397C16.5479 8.24945 16.383 8.06905 16.179 7.94296C15.975 7.81687 15.7399 7.75009 15.5 7.75009C15.2602 7.75009 15.025 7.81687 14.821 7.94296C14.617 8.06905 14.4521 8.24945 14.3448 8.46397L9.83282 17.4885L3.29973 13.1337C3.08523 12.9907 2.83285 12.9152 2.57507 12.9168C2.31729 12.9184 2.06589 12.9972 1.85323 13.1429C1.64057 13.2886 1.47637 13.4946 1.38176 13.7344C1.28715 13.9742 1.26646 14.2368 1.32235 14.4885L3.84352 25.8333Z" fill="#FFBE24"/>
<path d="M3.875 27.125V29.7083C3.875 30.0509 4.01109 30.3794 4.25332 30.6217C4.49555 30.8639 4.8241 31 5.16667 31H25.8333C26.1759 31 26.5044 30.8639 26.7467 30.6217C26.9889 30.3794 27.125 30.0509 27.125 29.7083V27.125H3.875Z" fill="#FFBE24"/>
</g>
<defs>
<clipPath id="clip0">
<rect width="31" height="31" fill="white"/>
</clipPath>
</defs>
</svg>
